<?xml version="1.0" encoding="UTF-8"?>
<svg id="Capa_2" data-name="Capa 2" xmlns="http://www.w3.org/2000/svg" xmlns:xlink="http://www.w3.org/1999/xlink" viewBox="0 0 942.8 718.25">
  <defs>
    <style>
      .cls-1 {
        fill: url(#Degradado_sin_nombre_6-2);
      }

      .cls-2 {
        fill: url(#Degradado_sin_nombre_6);
      }

      .cls-3 {
        fill: url(#Degradado_sin_nombre_6-3);
      }

      .cls-4 {
        fill: url(#Degradado_sin_nombre_6-4);
      }

      .cls-5 {
        fill: url(#Degradado_sin_nombre_7);
      }

      .cls-6 {
        fill: url(#Degradado_sin_nombre_6-5);
      }
    </style>
    <linearGradient id="Degradado_sin_nombre_6" data-name="Degradado sin nombre 6" x1="-73.56" y1="77" x2="987.74" y2="86.45" gradientUnits="userSpaceOnUse">
      <stop offset="0" stop-color="#e54d6c"/>
      <stop offset="1" stop-color="#600afe"/>
    </linearGradient>
    <linearGradient id="Degradado_sin_nombre_7" data-name="Degradado sin nombre 7" x1="-36.68" y1="353.57" x2="1024.61" y2="363.01" gradientUnits="userSpaceOnUse">
      <stop offset=".16" stop-color="#e54d6c"/>
      <stop offset="1" stop-color="#600afe"/>
    </linearGradient>
    <linearGradient id="Degradado_sin_nombre_6-2" data-name="Degradado sin nombre 6" x1="-78.47" y1="629.43" x2="982.82" y2="638.87" xlink:href="#Degradado_sin_nombre_6"/>
    <linearGradient id="Degradado_sin_nombre_6-3" data-name="Degradado sin nombre 6" x1="-73.59" y1="81.01" x2="987.7" y2="90.46" xlink:href="#Degradado_sin_nombre_6"/>
    <linearGradient id="Degradado_sin_nombre_6-4" data-name="Degradado sin nombre 6" x1="-76.06" y1="358.17" x2="985.23" y2="367.62" xlink:href="#Degradado_sin_nombre_6"/>
    <linearGradient id="Degradado_sin_nombre_6-5" data-name="Degradado sin nombre 6" x1="-78.51" y1="633.4" x2="982.78" y2="642.84" xlink:href="#Degradado_sin_nombre_6"/>
  </defs>
  <g id="Capa_1-2" data-name="Capa 1">
    <g>
      <path class="cls-2" d="m942.8,92.08c-5.4,13.18-8.81,27.69-16.61,39.25-16.9,25.07-42.53,34.48-72.29,34.46-181.3-.11-362.6-.04-543.89-.11-6.11,0-12.25-.56-18.32-1.34-39.73-5.06-70.71-40.83-70.71-81.47,0-40.64,30.98-76.4,70.71-81.48,5.76-.74,11.6-1.33,17.4-1.33C491.01,0,672.92,0,854.83.01c35.99,0,63.35,14.92,79.59,47.6,4.02,8.08,5.65,17.34,8.38,26.05v18.42Z"/>
      <path class="cls-5" d="m942.8,368.31c-5.4,13.18-8.81,27.69-16.61,39.25-16.9,25.07-42.53,34.48-72.29,34.46-181.3-.11-362.6-.04-543.89-.11-6.11,0-12.25-.56-18.32-1.33-39.73-5.06-70.71-40.83-70.71-81.47,0-40.64,30.99-76.4,70.71-81.48,5.76-.74,11.6-1.33,17.4-1.33,181.91-.07,363.82-.07,545.73-.05,35.99,0,63.35,14.92,79.59,47.6,4.02,8.08,5.65,17.34,8.38,26.05,0,6.14,0,12.28,0,18.42Z"/>
      <path class="cls-1" d="m942.8,644.54c-5.4,13.18-8.81,27.69-16.61,39.25-16.9,25.07-42.53,34.48-72.29,34.46-181.3-.11-362.6-.04-543.89-.11-6.11,0-12.25-.56-18.32-1.33-39.73-5.06-70.71-40.83-70.71-81.47,0-40.64,30.99-76.41,70.71-81.48,5.76-.74,11.6-1.33,17.4-1.33,181.91-.07,363.82-.07,545.73-.05,35.99,0,63.35,14.92,79.59,47.6,4.02,8.08,5.65,17.34,8.38,26.05v18.42Z"/>
      <path class="cls-3" d="m165.6,82.45c.67,72.26-89.85,109.55-140.77,59.02C-26.33,90.69,10.15.39,82.61.07c44.96-.2,82.57,37.13,82.99,82.38Z"/>
      <path class="cls-4" d="m82.9,441.9c-72.35.14-109.23-90.22-58.35-141.08,50.82-50.8,141.27-13.98,141.05,58.42-.14,45.12-37.61,82.58-82.7,82.66Z"/>
      <path class="cls-6" d="m82.67,552.54c71.92-.23,109.26,89.64,58.91,140.59C90.86,744.45-.16,708.1,0,635.24c.1-45.1,37.54-82.56,82.67-82.7Z"/>
    </g>
  </g>
</svg>