<?xml version="1.0" encoding="UTF-8"?>
<svg id="Capa_2" data-name="Capa 2" xmlns="http://www.w3.org/2000/svg" xmlns:xlink="http://www.w3.org/1999/xlink" viewBox="0 0 32 27.53">
  <defs>
    <style>
      .cls-1 {
        fill: url(#Degradado_sin_nombre_33-5);
      }

      .cls-2 {
        fill: url(#Degradado_sin_nombre_33);
      }

      .cls-3 {
        fill: url(#Degradado_sin_nombre_33-3);
      }

      .cls-4 {
        filter: url(#drop-shadow-1);
      }

      .cls-5 {
        fill: url(#Degradado_sin_nombre_33-4);
      }

      .cls-6 {
        fill: url(#Degradado_sin_nombre_33-2);
      }
    </style>
    <filter id="drop-shadow-1" filterUnits="userSpaceOnUse">
      <feOffset dx="7" dy="7"/>
      <feGaussianBlur result="blur" stdDeviation="5"/>
      <feFlood flood-color="#000" flood-opacity=".25"/>
      <feComposite in2="blur" operator="in"/>
      <feComposite in="SourceGraphic"/>
    </filter>
    <linearGradient id="Degradado_sin_nombre_33" data-name="Degradado sin nombre 33" x1="0" y1="13.76" x2="32" y2="13.76" gradientUnits="userSpaceOnUse">
      <stop offset="0" stop-color="#04c4da"/>
      <stop offset=".53" stop-color="#2275a9"/>
      <stop offset="1" stop-color="#432074"/>
    </linearGradient>
    <linearGradient id="Degradado_sin_nombre_33-2" data-name="Degradado sin nombre 33" x1="15.76" y1="16.96" x2="30.12" y2="16.96" xlink:href="#Degradado_sin_nombre_33"/>
    <linearGradient id="Degradado_sin_nombre_33-3" data-name="Degradado sin nombre 33" x1="9.38" y1="8.49" x2="11.57" y2="8.49" xlink:href="#Degradado_sin_nombre_33"/>
    <linearGradient id="Degradado_sin_nombre_33-4" data-name="Degradado sin nombre 33" x1="12.49" y1="6.3" x2="14.68" y2="6.3" xlink:href="#Degradado_sin_nombre_33"/>
    <linearGradient id="Degradado_sin_nombre_33-5" data-name="Degradado sin nombre 33" x1="16" y1="5.71" x2="18.19" y2="5.71" xlink:href="#Degradado_sin_nombre_33"/>
  </defs>
  <g id="Capa_3" data-name="Capa 3">
    <g class="cls-4">
      <g>
        <path class="cls-2" d="m31.7,16.59c-.6-1.38-1.47-2.61-2.01-4.02-.56-1.46-.97-2.99-1.26-4.53-.48-2.48-.6-5.01-.41-7.53.05-.6-.91-.72-1.04-.14-.74,3.17-2.44,5.97-4.93,8.06-.52.44.23,1.18.75.75,1.75-1.46,3.13-3.29,4.09-5.32.12,3.82.96,7.7,2.71,11.03.52.99,1.89,2.59,1.15,3.73-.43.67-1.15.7-1.5-.04-.29-.6-.39-1.32-.53-1.97-.26-1.21-.52-2.41-1.18-3.47-.54-.86-1.25-1.57-2.07-2.17-3.44-2.5-8.98-2.68-12.22.27-.6.55-.9,1.18-1.31,1.85-.63,1.03-1.59,1.93-2.57,2.63-.95.68-2.09,1.3-3.28,1.33-.95.02-2.06-.32-2.87-.82-.56-.35-.87-.81-1.59-.58-1.08.34-1.75,1.5-1.59,2.6.25,1.65,2.02,2.74,3.36,3.59-.33,1.5.19,3,1.41,3.96,1.28,1.02,2.91,1.67,4.56,1.7,1.19.03,2.39,0,3.58,0h12.8c.41,0,.87.05,1.28,0,.57-.07,1.16-.63,1.51-1.04.63-.73.97-1.65,1-2.61.01-.34-.35-.61-.67-.51-1.24.38-2.6-.16-2.63-1.6-.01-.68-1.07-.68-1.06,0,.03,1.85,1.55,2.91,3.21,2.77-.16.63-.51,1.21-1.03,1.63-.09.07-.2.13-.29.21-.05.04-.15.08-.2.1-.37.02-.75,0-1.12,0h-15.94c-2.41,0-5.94-1.42-5.38-4.29,1.2.53,2.49.79,3.81.74,1.48-.05,3.41-.39,4.14-1.85.65-1.29.06-2.86-1.26-3.42-1.24-.53-2.87.09-2.99,1.56-.07.82.48,1.56,1.29,1.73.35.07.73.03,1.05-.15.24-.13.48-.35.62-.59.11-.19.11-.46-.07-.61-.21-.18-.58-.08-.7.16-.38.8-1.43.23-1.33-.53.08-.65.74-.96,1.33-.89,1.3.16,1.87,1.67,1.07,2.67-.74.92-2.47,1.06-3.56,1.05-1.31-.02-2.6-.36-3.75-1.01-1.11-.69-3.39-1.95-2.98-3.47.08-.3.28-.59.55-.76.11-.07.23-.1.34-.15.17.12.33.27.49.38.68.47,1.49.73,2.29.92,2.23.52,4.27-.53,5.94-1.95.8-.68,1.57-1.47,2.12-2.37.49-.79.84-1.46,1.62-2.03,3.48-2.56,9.57-1.74,12.03,1.9.74,1.09.96,2.36,1.24,3.62.21.96.39,2.26,1.29,2.84.83.53,1.84.16,2.43-.55.69-.83.66-1.88.25-2.83Zm-29.69.05s.02,0,.02,0c.08-.03.08.04-.02,0Z"/>
        <path class="cls-6" d="m30.11,21.24c-.62-.22-1.22-.48-1.84-.75-.36-.16-.73-.32-1.08-.49-.07-.03-.39-.19-.65-.33-.19-.11-.33-.22-.3-.27.21-.41.36-.89.44-1.35.41-2.13-.4-4.35-2.2-5.6-2.33-1.63-5.65-1.25-7.48.96-2.13,2.58-1.46,6.62,1.44,8.32,1.97,1.15,4.34.96,6.17-.35.55-.39.02-1.31-.53-.91-2.06,1.47-4.93,1.25-6.46-.91-.56-.8-.83-1.73-.82-2.67h1.4c0,1.7,1.38,3.08,3.08,3.08s3.08-1.38,3.08-3.08h1.37c0,.12,0,.24,0,.36-.04.68-.26,1.27-.54,1.88-.12.27-.19.48-.03.76.15.27.46.47.76.64.15.08.3.16.44.23.67.35,1.36.65,2.05.94.51.21,1,.41,1.49.58.13-.28.21-.6.21-.93,0-.03,0-.06,0-.1Zm-8.82-2.29c-1.14,0-2.06-.92-2.06-2.06h4.13c0,1.14-.92,2.06-2.06,2.06Z"/>
      </g>
      <circle class="cls-3" cx="10.47" cy="8.49" r="1.09"/>
      <circle class="cls-5" cx="13.59" cy="6.3" r="1.09"/>
      <circle class="cls-1" cx="17.09" cy="5.71" r="1.09"/>
    </g>
  </g>
</svg>