<?xml version="1.0" encoding="UTF-8"?>
<svg id="Capa_2" data-name="Capa 2" xmlns="http://www.w3.org/2000/svg" xmlns:xlink="http://www.w3.org/1999/xlink" viewBox="0 0 55.49 47.74">
  <defs>
    <style>
      .cls-1 {
        fill: #fff;
      }

      .cls-2 {
        filter: url(#drop-shadow-1);
      }
    </style>
    <filter id="drop-shadow-1" filterUnits="userSpaceOnUse">
      <feOffset dx="7" dy="7"/>
      <feGaussianBlur result="blur" stdDeviation="5"/>
      <feFlood flood-color="#000" flood-opacity=".25"/>
      <feComposite in2="blur" operator="in"/>
      <feComposite in="SourceGraphic"/>
    </filter>
  </defs>
  <g id="Textos">
    <g class="cls-2">
      <g>
        <path class="cls-1" d="m54.98,28.77c-1.04-2.39-2.55-4.52-3.48-6.97-.97-2.54-1.68-5.19-2.19-7.85-.83-4.3-1.05-8.69-.72-13.06.08-1.03-1.57-1.25-1.8-.24-1.28,5.49-4.23,10.35-8.56,13.98-.91.76.4,2.05,1.3,1.3,3.03-2.54,5.43-5.7,7.1-9.23.21,6.62,1.66,13.35,4.69,19.13.9,1.71,3.27,4.49,1.99,6.46-.75,1.16-2,1.22-2.61-.06-.5-1.04-.68-2.29-.92-3.42-.45-2.09-.9-4.18-2.05-6.01-.93-1.49-2.17-2.73-3.59-3.76-5.97-4.33-15.57-4.66-21.19.47-1.04.95-1.56,2.04-2.28,3.21-1.1,1.78-2.76,3.35-4.45,4.57-1.64,1.18-3.62,2.26-5.69,2.3-1.64.03-3.58-.56-4.98-1.43-.98-.61-1.51-1.4-2.76-1.01C.92,27.73-.24,29.74.04,31.65c.43,2.86,3.51,4.75,5.83,6.22-.58,2.6.33,5.2,2.44,6.87,2.23,1.77,5.04,2.89,7.9,2.95,2.07.05,4.14,0,6.2,0h22.19c.72,0,1.5.09,2.22,0,.99-.13,2-1.09,2.62-1.81,1.09-1.27,1.68-2.86,1.73-4.53.02-.59-.6-1.06-1.16-.89-2.16.66-4.51-.28-4.56-2.78-.02-1.18-1.86-1.18-1.84,0,.06,3.2,2.69,5.04,5.56,4.8-.27,1.1-.89,2.1-1.78,2.83-.16.13-.35.23-.5.36-.09.07-.27.14-.34.17-.65.03-1.3,0-1.94,0h-27.64c-4.18,0-10.31-2.47-9.33-7.44,2.08.92,4.31,1.36,6.62,1.28,2.56-.09,5.92-.67,7.19-3.2,1.12-2.24.11-4.95-2.19-5.92-2.16-.91-4.97.15-5.18,2.71-.12,1.43.84,2.71,2.24,2.99.62.13,1.27.05,1.82-.25.42-.23.83-.6,1.07-1.02.18-.32.19-.8-.11-1.06-.36-.31-1.01-.13-1.21.28-.66,1.38-2.47.41-2.31-.91.14-1.13,1.28-1.67,2.3-1.55,2.25.27,3.25,2.89,1.85,4.64-1.28,1.6-4.28,1.84-6.17,1.82-2.28-.03-4.51-.62-6.5-1.75-1.92-1.19-5.88-3.39-5.16-6.01.14-.53.49-1.02.95-1.32.19-.12.39-.18.6-.26.3.2.56.46.86.66,1.18.82,2.58,1.26,3.97,1.59,3.86.91,7.41-.93,10.3-3.38,1.39-1.18,2.72-2.55,3.67-4.1.85-1.38,1.46-2.53,2.82-3.52,6.04-4.43,16.6-3.02,20.87,3.3,1.28,1.9,1.66,4.09,2.15,6.28.37,1.67.68,3.91,2.24,4.92,1.43.92,3.19.27,4.21-.95,1.2-1.44,1.15-3.25.43-4.9Zm-51.48.09s.03-.01.04-.02c.13-.06.14.07-.04.02Z"/>
        <path class="cls-1" d="m52.22,36.84c-1.07-.38-2.12-.83-3.18-1.3-.63-.28-1.26-.55-1.88-.85-.12-.06-.68-.32-1.12-.58-.32-.19-.58-.37-.53-.47.37-.72.62-1.54.77-2.34.71-3.69-.7-7.54-3.81-9.71-4.04-2.82-9.8-2.17-12.98,1.66-3.69,4.47-2.53,11.49,2.49,14.43,3.41,2,7.52,1.66,10.7-.61.95-.68.04-2.27-.93-1.59-3.58,2.56-8.56,2.17-11.2-1.57-.98-1.39-1.45-3-1.42-4.62h2.44c0,2.95,2.39,5.33,5.33,5.33s5.33-2.39,5.33-5.33h2.38c0,.21,0,.41-.01.62-.08,1.18-.46,2.19-.93,3.26-.21.47-.34.83-.06,1.31.27.47.8.82,1.32,1.11.26.14.53.27.76.39,1.16.6,2.36,1.13,3.56,1.64.88.37,1.73.71,2.59,1,.23-.49.37-1.04.37-1.62,0-.06,0-.11,0-.17Zm-15.3-3.96c-1.98,0-3.58-1.6-3.58-3.58h7.16c0,1.98-1.6,3.58-3.58,3.58Z"/>
      </g>
      <circle class="cls-1" cx="18.16" cy="14.72" r="1.9"/>
      <circle class="cls-1" cx="23.56" cy="10.92" r="1.9"/>
      <circle class="cls-1" cx="29.64" cy="9.91" r="1.9"/>
    </g>
  </g>
</svg>